<svg xmlns="http://www.w3.org/2000/svg" width="800" height="800" viewBox="0 0 16 16"><path fill="gray" d="M8 2a2.8 2.8 0 0 0-1.12.221 2.6 2.6 0 0 0-.906.615v.003l-.001.002c-.248.269-.44.592-.574.96a3.4 3.4 0 0 0-.203 1.2c0 .435.065.841.203 1.209a2.9 2.9 0 0 0 .574.95l.001.002c.254.267.558.477.901.624v.003c.346.141.723.21 1.12.21q.595 0 1.117-.21v-.002c.343-.147.644-.357.892-.625.255-.268.45-.59.586-.952A3.4 3.4 0 0 0 10.794 5h.01c0-.43-.065-.831-.203-1.198a2.8 2.8 0 0 0-.585-.963 2.5 2.5 0 0 0-.897-.618A2.8 2.8 0 0 0 7.999 2zm.024 8.002c-2.317 0-3.561.213-4.486.91-.462.35-.767.825-.939 1.378s-.226.975-.228 1.71L8 14.002h5.629c-.001-.736-.052-1.159-.225-1.712-.172-.553-.477-1.027-.94-1.376-.923-.697-2.124-.912-4.44-.912" color="#000" font-family="Ubuntu" font-weight="400" letter-spacing="0" overflow="visible" style="line-height:125%;-inkscape-font-specification:&quot;Ubuntu, Normal&quot;;font-variant-ligatures:normal;font-variant-position:normal;font-variant-caps:normal;font-variant-numeric:normal;font-variant-alternates:normal;font-feature-settings:normal;text-indent:0;text-align:start;text-decoration-line:none;text-decoration-style:solid;text-decoration-color:#000;text-transform:none;text-orientation:mixed;shape-padding:0;isolation:auto;mix-blend-mode:normal" word-spacing="0"/></svg>